<mxfile host="app.diagrams.net" modified="2023-05-14T15:19:08.061Z" agent="Mozilla/5.0 (Macintosh; Intel Mac OS X 10_15_7) AppleWebKit/605.1.15 (KHTML, like Gecko) Version/15.1 Safari/605.1.15" version="21.2.9" etag="Q4Ven8SFUTzo9yBd6SFa" type="github">
  <diagram name="Page-1" id="kN8LfErHKXoLpabuGjJK">
    <mxGraphModel>
      <root>
        <mxCell id="0" />
        <mxCell id="1" parent="0" />
      </root>
    </mxGraphModel>
  </diagram>
</mxfile>
